<?xml version="1.0" encoding="UTF-8" standalone="no"?>
<svg
   xmlns:dc="http://purl.org/dc/elements/1.1/"
   xmlns:cc="http://creativecommons.org/ns#"
   xmlns:rdf="http://www.w3.org/1999/02/22-rdf-syntax-ns#"
   xmlns:svg="http://www.w3.org/2000/svg"
   xmlns="http://www.w3.org/2000/svg"
   xmlns:xlink="http://www.w3.org/1999/xlink"
   xmlns:sodipodi="http://sodipodi.sourceforge.net/DTD/sodipodi-0.dtd"
   xmlns:inkscape="http://www.inkscape.org/namespaces/inkscape"
   width="25"
   height="25"
   viewBox="0 0 25 25"
   version="1.1"
   id="svg15"
   sodipodi:docname="petthera_style_icon-website.svg"
   inkscape:version="1.0.2 (e86c870879, 2021-01-15, custom)">
  <metadata
     id="metadata19">
    <rdf:RDF>
      <cc:Work
         rdf:about="">
        <dc:format>image/svg+xml</dc:format>
        <dc:type
           rdf:resource="http://purl.org/dc/dcmitype/StillImage" />
        <dc:title>noun_376853_cc</dc:title>
      </cc:Work>
    </rdf:RDF>
  </metadata>
  <sodipodi:namedview
     pagecolor="#ffffff"
     bordercolor="#666666"
     borderopacity="1"
     objecttolerance="10"
     gridtolerance="10"
     guidetolerance="10"
     inkscape:pageopacity="0"
     inkscape:pageshadow="2"
     inkscape:window-width="1920"
     inkscape:window-height="1057"
     id="namedview17"
     showgrid="false"
     inkscape:zoom="22.627417"
     inkscape:cx="-10.467022"
     inkscape:cy="8.177604"
     inkscape:window-x="1912"
     inkscape:window-y="-8"
     inkscape:window-maximized="1"
     inkscape:current-layer="svg15" />
  <title
     id="title2">noun_376853_cc</title>
  <desc
     id="desc4">Created using Figma</desc>
  <g
     id="Canvas"
     transform="translate(-4909 -2705)">
    <g
       id="noun_376853_cc">
      <g
         id="Group">
        <g
           id="Vector">
          <use
             xlink:href="#path0_fill"
             transform="translate(4909 2705)"
             fill="#219653"
             id="use6" />
        </g>
      </g>
    </g>
  </g>
  <defs
     id="defs13">
    <path
       id="path0_fill"
       fill-rule="evenodd"
       d="M 12.5 8.88178e-16C 9.18479 1.77636e-15 6.00537 1.31696 3.66117 3.66117C 1.31696 6.00537 2.66454e-15 9.18479 0 12.5C 3.55271e-15 15.8152 1.31696 18.9946 3.66117 21.3388C 6.00537 23.683 9.18479 25 12.5 25C 15.8152 25 18.9946 23.683 21.3388 21.3388C 23.683 18.9946 25 15.8152 25 12.5C 25 9.18479 23.683 6.00537 21.3388 3.66117C 18.9946 1.31696 15.8152 1.44329e-15 12.5 0L 12.5 8.88178e-16ZM 12.5 4.5C 16.9124 4.5 20.5 8.0877 20.5 12.5C 20.5 16.9124 16.9124 20.5 12.5 20.5C 8.08764 20.5 4.5 16.9124 4.5 12.5C 4.5 8.0877 8.08764 4.5 12.5 4.5ZM 12.5 5.5C 12.2687 5.5 12.0153 5.61689 11.7266 5.92969C 11.4378 6.24249 11.1438 6.74051 10.8945 7.37891C 10.6615 7.97581 10.4715 8.6998 10.3301 9.5L 14.6699 9.5C 14.5285 8.6998 14.3385 7.97581 14.1055 7.37891C 13.8562 6.74051 13.5622 6.24249 13.2734 5.92969C 12.9847 5.61689 12.7313 5.5 12.5 5.5ZM 10.5996 5.76562C 8.64111 6.31582 7.03707 7.6929 6.17969 9.5L 9.30664 9.5C 9.45913 8.5741 9.68224 7.73443 9.96289 7.01562C 10.1479 6.54192 10.3605 6.12572 10.5996 5.76562ZM 14.4004 5.76562C 14.6395 6.12572 14.8521 6.54192 15.0371 7.01562C 15.3178 7.73443 15.5409 8.5741 15.6934 9.5L 18.8203 9.5C 17.9629 7.6929 16.3589 6.31582 14.4004 5.76562ZM 5.79297 10.5C 5.60485 11.1338 5.5 11.8044 5.5 12.5C 5.5 13.1963 5.6045 13.8657 5.79297 14.5L 9.1875 14.5C 9.12027 13.8572 9.07227 13.1956 9.07227 12.5C 9.07227 11.8044 9.12027 11.1425 9.1875 10.5L 5.79297 10.5ZM 10.1953 10.5C 10.1238 11.1382 10.0723 11.8008 10.0723 12.5C 10.0723 13.1999 10.1237 13.8609 10.1953 14.5L 14.8047 14.5C 14.8763 13.8609 14.9277 13.1999 14.9277 12.5C 14.9277 11.8008 14.8762 11.1382 14.8047 10.5L 10.1953 10.5ZM 15.8125 10.5C 15.8797 11.1425 15.9277 11.8044 15.9277 12.5C 15.9277 13.1956 15.8797 13.8572 15.8125 14.5L 19.207 14.5C 19.3955 13.8657 19.5 13.1963 19.5 12.5C 19.5 11.8044 19.3952 11.1338 19.207 10.5L 15.8125 10.5ZM 6.18164 15.5C 7.03904 17.3054 8.64083 18.6822 10.5977 19.2324C 10.3591 18.8728 10.1475 18.459 9.96289 17.9863C 9.68224 17.2676 9.45913 16.4264 9.30664 15.5L 6.18164 15.5ZM 10.332 15.5C 10.4734 16.2999 10.6617 17.0267 10.8945 17.623C 11.1438 18.2615 11.4378 18.7595 11.7266 19.0723C 12.0153 19.3851 12.2687 19.5 12.5 19.5C 12.7313 19.5 12.9847 19.3851 13.2734 19.0723C 13.5622 18.7595 13.8562 18.2615 14.1055 17.623C 14.3383 17.0267 14.5266 16.2999 14.668 15.5L 10.332 15.5ZM 15.6934 15.5C 15.5409 16.4264 15.3178 17.2676 15.0371 17.9863C 14.8525 18.459 14.6409 18.8728 14.4023 19.2324C 16.3592 18.6822 17.961 17.3054 18.8184 15.5L 15.6934 15.5Z" />
  </defs>
  <path
     style="fill:#eb6b20;stroke:#eb6b20;stroke-width:0.0288183;fill-opacity:1"
     d="M 11.635452,24.959557 C 10.687088,24.8893 9.6094978,24.679036 8.6954218,24.385884 6.2277256,23.594475 4.0698713,22.05481 2.4980113,19.96393 1.1920193,18.226706 0.37013193,16.151826 0.08938369,13.883277 0.0156084,13.287145 0.01532184,11.711781 0.08888044,11.116723 0.50900537,7.7180937 2.1414182,4.7860656 4.776706,2.6967721 6.5683384,1.2763406 8.7412918,0.38252173 11.116723,0.08888044 c 0.595526,-0.07361645 2.171028,-0.07361645 2.766554,0 1.534877,0.18973532 2.948294,0.61392535 4.254819,1.27694156 3.49945,1.77585 5.945813,5.0660409 6.650146,8.94399 0.146017,0.803949 0.174088,1.157102 0.174088,2.190188 0,1.033086 -0.02807,1.386239 -0.174088,2.190188 -0.549571,3.025857 -2.167101,5.723303 -4.564948,7.612656 -1.816086,1.430962 -3.96436,2.31586 -6.325608,2.605587 -0.361735,0.04438 -1.88771,0.07887 -2.262234,0.05113 z m 2.031688,-4.530563 c 1.347211,-0.206617 2.546043,-0.70423 3.607904,-1.497574 1.747117,-1.305317 2.847743,-3.16359 3.169157,-5.350735 0.07165,-0.487593 0.0715,-1.675595 -2.88e-4,-2.16137 C 20.179364,9.6289277 19.410494,8.0840723 18.163211,6.8367892 16.915928,5.5895057 15.371072,4.8206357 13.580685,4.5560791 13.09491,4.4842986 11.906908,4.484145 11.419315,4.555791 9.2321703,4.8772045 7.3738967,5.9778309 6.0685799,7.7249478 5.262045,8.8044643 4.7614447,10.02715 4.5560103,11.419307 c -0.071839,0.486828 -0.071839,1.674541 0,2.161369 0.3234985,2.192236 1.4172916,4.03892 3.1689459,5.35023 1.1012573,0.824415 2.4668058,1.371756 3.7952228,1.521206 0.150576,0.01694 0.319162,0.03604 0.374638,0.04245 0.272804,0.03151 1.414788,-0.01074 1.772323,-0.06558 z"
     id="path21" />
  <path
     style="fill:#eb6b20;fill-opacity:1;stroke:#eb6b20;stroke-width:0.0288183"
     d="m 11.711028,24.957731 c -0.0034,-0.0034 -0.09642,-0.01297 -0.206622,-0.02128 C 10.724532,24.877608 9.5255877,24.635781 8.7079848,24.372409 7.4128325,23.955205 6.1081872,23.283743 5.0504795,22.49 4.1229035,21.793913 3.1461218,20.815043 2.4791787,19.913201 1.2381263,18.235049 0.4520734,16.291556 0.1381164,14.124994 0.02058981,13.313964 0.00513634,11.796982 0.10720404,11.090499 c 0.0146783,-0.101599 0.0251967,-0.192377 0.0233743,-0.201728 -0.001822,-0.0094 0.005502,-0.06239 0.0162755,-0.117867 0.010774,-0.05547 0.02534,-0.146252 0.0323689,-0.201728 0.007029,-0.05548 0.0517808,-0.288903 0.0994487,-0.518728 C 0.91568153,6.9791693 2.5641133,4.3780177 5.0648886,2.4980113 6.5337701,1.3937511 8.3374944,0.60770152 10.252176,0.23743033 10.683107,0.15409463 10.705425,0.15058669 10.972632,0.1241914 11.075657,0.11401435 11.176213,0.1001443 11.196088,0.09336908 11.256681,0.07271401 12.056831,0.03990653 12.5,0.03990653 c 0.537423,0 1.245059,0.037315 1.563358,0.0824388 0.05942,0.008424 0.150198,0.0211055 0.201728,0.0281818 0.549211,0.0754191 1.447568,0.28946226 2.082152,0.49609502 1.951087,0.63531135 3.688383,1.72207505 5.116178,3.20041965 1.26595,1.310769 2.224211,2.874347 2.821624,4.6039925 0.217858,0.6307496 0.464745,1.5985497 0.532988,2.0893237 0.0099,0.07132 0.03149,0.213976 0.04795,0.317001 0.06086,0.381075 0.06684,0.528117 0.06688,1.642641 2.8e-5,1.247783 -8.82e-4,1.262409 -0.125191,1.989301 -0.348464,2.037646 -1.149129,3.909772 -2.358718,5.515187 -1.54579,2.051633 -3.751595,3.61265 -6.173751,4.369074 -0.213975,0.06682 -0.408499,0.12843 -0.432274,0.136904 -0.02377,0.0085 -0.06736,0.02008 -0.09685,0.02579 -0.02949,0.0057 -0.178626,0.04185 -0.33141,0.0803 -0.293725,0.07392 -0.986845,0.212814 -1.156747,0.231793 -0.05547,0.0062 -0.211094,0.02492 -0.345819,0.04161 -0.35071,0.04344 -2.168949,0.09943 -2.201067,0.06777 z m 1.639111,-4.4873 c 0.204444,-0.01799 0.331726,-0.03506 0.648411,-0.08697 0.440643,-0.07223 1.218733,-0.311916 1.72408,-0.531097 1.079064,-0.468015 2.162857,-1.28424 2.951345,-2.222711 0.509186,-0.606043 1.060581,-1.552447 1.331909,-2.286062 0.183708,-0.49671 0.431033,-1.456373 0.443197,-1.719677 0.0011,-0.02378 0.0116,-0.134005 0.02333,-0.244955 0.04303,-0.406891 0.02405,-1.691158 -0.02959,-2.002869 -0.0068,-0.03962 -0.02055,-0.130403 -0.03052,-0.201728 C 20.344336,10.688102 20.083036,9.8054978 19.849198,9.2723547 19.443274,8.3468632 18.908449,7.5753211 18.151192,6.8228025 17.200349,5.87791 16.192805,5.2582519 14.973443,4.8684293 14.616111,4.7541923 14.081728,4.6234937 13.82564,4.5877014 c -0.07132,-0.00997 -0.162103,-0.023704 -0.201728,-0.030523 -0.311272,-0.053565 -1.605659,-0.072991 -2.002869,-0.03006 -0.11095,0.011992 -0.22118,0.022617 -0.244955,0.023611 -0.02377,9.942e-4 -0.101585,0.014426 -0.17291,0.02985 -0.07132,0.015423 -0.175071,0.033792 -0.230546,0.04082 C 10.78232,4.6455074 10.105313,4.8350119 9.7393492,4.966614 8.9455626,5.2520629 8.0088054,5.7896056 7.3703495,6.3260253 6.5460691,7.0185713 5.795924,7.9618838 5.3230798,8.9004807 5.0422556,9.457917 4.7271354,10.369762 4.6517903,10.84295 c -0.00757,0.04755 -0.027133,0.144812 -0.043469,0.216137 -0.030855,0.134708 -0.050349,0.268217 -0.082054,0.561956 -0.024112,0.223395 -0.02425,1.532726 -1.729e-4,1.757914 0.1193399,1.11671 0.5144043,2.297172 1.0837099,3.238153 1.1052814,1.826871 2.8809128,3.146771 4.9296897,3.664442 0.182758,0.04618 0.390643,0.09208 0.461968,0.102006 0.07132,0.0099 0.162103,0.02372 0.201728,0.03066 0.108982,0.01907 0.256407,0.03837 0.432125,0.05656 0.08709,0.009 0.164362,0.0224 0.171709,0.02975 0.01625,0.01625 1.301231,-0.0088 1.543127,-0.03009 z"
     id="path846" />
  <path
     style="fill:#eb6b20;fill-opacity:1;stroke:#eb6b20;stroke-width:0.0288183"
     d="M 15.643981,9.135468 C 15.430632,7.9937257 15.061038,6.8911132 14.636262,6.1291311 c -0.09215,-0.1653072 -0.15762,-0.3045489 -0.145483,-0.309426 0.01214,-0.00488 0.142862,0.032954 0.2905,0.08407 1.615363,0.5592744 3.000836,1.7244514 3.818209,3.2110989 0.07874,0.1432112 0.151694,0.2826195 0.162123,0.3097963 0.01776,0.04629 -0.07813,0.049412 -1.517697,0.049412 h -1.536658 z"
     id="path848" />
  <path
     style="fill:#eb6b20;fill-opacity:1;stroke:#eb6b20;stroke-width:0.0288183"
     d="m 15.854593,14.222125 c 0.01099,-0.146742 0.03202,-0.422421 0.04673,-0.612622 0.03449,-0.445899 0.03449,-1.773107 0,-2.219006 -0.01471,-0.190201 -0.03574,-0.46588 -0.04673,-0.612622 l -0.01998,-0.266803 1.682817,0.0074 1.682816,0.0074 0.06434,0.244955 c 0.159357,0.606722 0.193902,0.914774 0.193902,1.729096 0,0.814322 -0.03455,1.122374 -0.193902,1.729096 l -0.06434,0.244955 -1.682816,0.0074 -1.682817,0.0074 z"
     id="path850" />
  <path
     style="fill:#eb6b20;fill-opacity:1;stroke:#eb6b20;stroke-width:0.0288183"
     d="m 10.170346,14.121027 c -0.01923,-0.202088 -0.04958,-0.649491 -0.06746,-0.99423 -0.0336,-0.647855 -0.01003,-1.433243 0.06746,-2.247824 l 0.03496,-0.367433 H 12.5 14.794699 l 0.03493,0.367433 c 0.105752,1.112372 0.105752,2.129682 0,3.242054 l -0.03493,0.367433 H 12.5 10.205301 Z"
     id="path852" />
  <path
     style="fill:#eb6b20;fill-opacity:1;stroke:#eb6b20;stroke-width:0.0288183"
     d="M 10.412696,9.1474446 C 10.848657,7.0016223 11.699173,5.5259808 12.5,5.5259808 c 0.800253,0 1.651656,1.4771811 2.087304,3.6214638 l 0.06636,0.326638 H 12.5 10.346333 Z"
     id="path854" />
  <path
     style="fill:#eb6b20;fill-opacity:1;stroke:#eb6b20;stroke-width:0.0288183"
     d="M 6.2378179,9.4236506 C 6.2479324,9.395913 6.3209835,9.2565047 6.4001539,9.1138543 7.1293198,7.8000312 8.2869603,6.7365967 9.6468068,6.1314066 9.9736197,5.9859608 10.473419,5.8053187 10.509221,5.8197051 c 0.01214,0.00488 -0.05333,0.1441188 -0.145483,0.309426 C 9.9379384,6.8929491 9.5687238,7.9942951 9.3558957,9.135468 L 9.2927442,9.4740826 H 7.7560861 c -1.4512775,0 -1.5356364,-0.0028 -1.5182682,-0.050432 z"
     id="path856" />
  <path
     style="fill:#eb6b20;fill-opacity:1;stroke:#eb6b20;stroke-width:0.0288183"
     d="m 5.7871317,14.421113 c -0.039018,-0.102625 -0.1665554,-0.694607 -0.2090018,-0.97011 -0.023958,-0.155501 -0.037401,-0.51332 -0.036811,-0.979821 9.894e-4,-0.782291 0.037893,-1.105561 0.1940967,-1.700278 l 0.064338,-0.244955 1.6828162,-0.0074 1.682816,-0.0074 -0.020742,0.266803 c -0.011408,0.146742 -0.032332,0.422421 -0.046497,0.612622 -0.03374,0.45303 -0.033421,1.779989 5.331e-4,2.219006 0.014711,0.190201 0.035729,0.465775 0.046708,0.612388 l 0.019962,0.266569 H 7.4890438 5.8127365 l -0.025605,-0.06735 z"
     id="path858" />
  <path
     style="fill:#eb6b20;fill-opacity:1;stroke:#eb6b20;stroke-width:0.0288183"
     d="M 10.165721,19.07434 C 9.6370464,18.884738 9.1804228,18.658573 8.6815804,18.339246 7.7373975,17.73484 6.8045995,16.700475 6.3069279,15.706032 l -0.090139,-0.180115 h 1.5379774 1.5379774 l 0.063462,0.338615 c 0.2329017,1.242708 0.6523283,2.448929 1.1122953,3.198827 0.04935,0.08045 0.0622,0.121967 0.03747,0.120989 -0.02071,-8.18e-4 -0.173823,-0.05032 -0.340248,-0.110008 z"
     id="path860" />
  <path
     style="fill:#eb6b20;fill-opacity:1;stroke:#eb6b20;stroke-width:0.0288183"
     d="m 12.21255,19.414261 c -0.584235,-0.265012 -1.163249,-1.211285 -1.541641,-2.519476 -0.12699,-0.439034 -0.30346,-1.20034 -0.30346,-1.309148 v -0.05972 H 12.5 14.632551 v 0.05972 c 0,0.108808 -0.17647,0.870114 -0.30346,1.309148 -0.446896,1.545028 -1.1808,2.581138 -1.826489,2.578601 -0.09911,-3.89e-4 -0.210721,-0.02314 -0.290052,-0.05913 z"
     id="path862" />
  <path
     style="fill:#eb6b20;fill-opacity:1;stroke:#eb6b20;stroke-width:0.0288183"
     d="m 14.531499,19.063359 c 0.457382,-0.745684 0.879834,-1.960704 1.112205,-3.198827 l 0.06355,-0.338615 h 1.537977 1.537978 l -0.09014,0.180115 c -0.669042,1.336875 -1.923487,2.52642 -3.328956,3.156729 -0.254181,0.113992 -0.823738,0.323076 -0.880078,0.323076 -0.01521,0 0.0061,-0.05512 0.04746,-0.122478 z"
     id="path864" />
  <path
     style="fill:#eb6b20;fill-opacity:1;stroke:#eb6b20;stroke-width:0.00390625"
     d="m 14.513413,5.9408441 c -1.91e-4,-0.00215 -0.02389,-0.04082 -0.05266,-0.085937 -0.02877,-0.045117 -0.05179,-0.082585 -0.05114,-0.083263 0.0015,-0.00152 0.11255,0.030729 0.115251,0.03346 0.0011,0.00109 -0.0063,7.733e-4 -0.01645,-6.956e-4 -0.02471,-0.00358 -0.03433,0.00182 -0.03433,0.019284 0,0.013798 0.01587,0.057561 0.03348,0.092302 0.0055,0.010785 0.0091,0.021667 0.0081,0.024182 -10e-4,0.00252 -0.002,0.00282 -0.0022,6.674e-4 z"
     id="path866" />
  <path
     style="fill:#eb6b20;fill-opacity:1;stroke:#eb6b20;stroke-width:0.00390625"
     d="m 15.692831,9.49387 c 0,-0.00221 0.546367,-0.00432 1.401367,-0.00542 1.367934,-0.00176 1.500371,-0.00295 1.600586,-0.01428 0.06129,-0.00693 0.08375,-0.018122 0.08418,-0.041935 1.6e-4,-0.00891 0.0029,-0.00553 0.01511,0.018377 0.0082,0.016113 0.01615,0.033252 0.01765,0.038086 l 0.0027,0.00879 h -1.56081 c -0.954026,0 -1.56081,-0.00141 -1.56081,-0.00361 z"
     id="path868" />
  <path
     style="fill:#eb6b20;fill-opacity:1;stroke:#eb6b20;stroke-width:0.00390625"
     d="m 19.460592,13.177172 c 9.66e-4,-0.02471 0.0039,-0.09063 0.0066,-0.146484 0.0066,-0.139617 0.0066,-0.920182 -4e-6,-1.058594 -0.0027,-0.05586 -0.0056,-0.122656 -0.0066,-0.148437 l -0.0018,-0.04687 0.0054,0.04687 c 0.0069,0.06011 0.01993,0.228996 0.02628,0.341796 0.0065,0.11619 0.0066,0.551287 8e-5,0.666016 -0.0074,0.129773 -0.01627,0.24746 -0.02441,0.322868 -0.0072,0.06644 -0.0073,0.06689 -0.0056,0.02284 z"
     id="path870" />
  <path
     style="fill:#eb6b20;fill-opacity:1;stroke:#eb6b20;stroke-width:0.00390625"
     d=""
     id="path872" />
  <path
     style="fill:#eb6b20;fill-opacity:1;stroke:#eb6b20;stroke-width:0.00390625"
     d="m 14.650229,15.545336 -3.67e-4,-0.03613 h -1.845703 c -1.227865,0 -1.845703,-0.0013 -1.845703,-0.0039 0,-0.0026 0.620501,-0.0039 1.853692,-0.0039 h 1.853693 l -0.0023,0.0127 c -0.0013,0.007 -0.0047,0.025 -0.0076,0.04004 l -0.0053,0.02734 -3.67e-4,-0.03613 z"
     id="path874" />
  <path
     style="fill:#eb6b20;fill-opacity:1;stroke:#eb6b20;stroke-width:0.00390625"
     d="m 18.806172,15.514086 c -4.8e-5,-0.0039 -0.314071,-0.0049 -1.556931,-0.0049 -1.03692,0 -1.556065,-0.0013 -1.554457,-0.0039 0.0029,-0.0046 3.119175,-0.0056 3.11908,-9.76e-4 -1.11e-4,0.0054 -0.0076,0.01499 -0.0077,0.0098 z"
     id="path876" />
  <path
     style="fill:#eb6b20;fill-opacity:1;stroke:#eb6b20;stroke-width:0.00390625"
     d="m 16.581698,18.173631 c 0.002,-0.0019 0.03975,-0.03054 0.08379,-0.06354 0.279255,-0.209223 0.509848,-0.408652 0.766601,-0.662993 0.07466,-0.07396 0.135743,-0.132806 0.135743,-0.130777 0,0.0049 -0.244221,0.247367 -0.316484,0.314229 -0.126198,0.116768 -0.245167,0.219266 -0.383968,0.330807 -0.09299,0.07473 -0.279737,0.215799 -0.285681,0.215808 -0.0023,3e-6 -0.0023,-0.0013 0,-0.0035 z"
     id="path878" />
  <path
     style="fill:#eb6b20;fill-opacity:1;stroke:#eb6b20;stroke-width:0.00390625"
     d="m 14.441732,19.175998 c 0.01886,-0.02908 0.03479,-0.05237 0.03541,-0.05175 6.19e-4,6.19e-4 -0.0027,0.01292 -0.0075,0.02733 -0.01136,0.03461 -0.008,0.04624 0.01426,0.04904 0.01462,0.0018 0.01309,0.0026 -0.02547,0.01332 -0.02256,0.0063 -0.04326,0.01217 -0.04601,0.01316 -0.0027,9.83e-4 0.01043,-0.02201 0.02929,-0.05109 z"
     id="path880" />
  <path
     style="fill:#eb6b20;fill-opacity:1;stroke:#eb6b20;stroke-width:0.00390625"
     d="m 10.542138,19.214157 c -0.02363,-0.0071 -0.03921,-0.01311 -0.03461,-0.01326 0.0046,-1.56e-4 0.01228,-0.0035 0.01707,-0.0073 0.0097,-0.0079 0.01153,-0.02943 0.0041,-0.04891 -0.0094,-0.0248 -0.0025,-0.01776 0.02634,0.02667 0.03846,0.05931 0.03693,0.05671 0.0332,0.05623 -0.0017,-2.24e-4 -0.0225,-0.0062 -0.04613,-0.01339 z"
     id="path882" />
  <path
     style="fill:#eb6b20;fill-opacity:1;stroke:#eb6b20;stroke-width:0.00390625"
     d="m 10.343769,15.554125 c -0.004,-0.02363 -0.0082,-0.04517 -0.0092,-0.04785 -0.0015,-0.0039 0.06232,-0.0049 0.311046,-0.0049 0.206008,0 0.312918,0.0013 0.312918,0.0039 0,0.0026 -0.103473,0.0039 -0.302606,0.0039 H 10.35332 l -0.0011,0.04395 -0.0011,0.04395 z"
     id="path884" />
  <path
     style="fill:#eb6b20;fill-opacity:1;stroke:#eb6b20;stroke-width:0.00390625"
     d="m 6.9734927,15.51018 c 0.4282512,-5.48e-4 1.1278605,-5.48e-4 1.5546875,0 0.4268269,5.48e-4 0.07644,9.96e-4 -0.7786386,9.96e-4 -0.8550781,0 -1.2043001,-4.48e-4 -0.7760489,-9.96e-4 z"
     id="path886" />
  <path
     style="fill:#eb6b20;fill-opacity:1;stroke:#eb6b20;stroke-width:0.00390625"
     d="m 6.1872054,15.506274 c -0.0015,-0.0039 0.311819,-0.0049 1.5585525,-0.0049 0.9451533,0 1.5604243,0.0014 1.5604243,0.0036 0,0.0022 -0.4494939,0.0029 -1.1416015,0.0017 -0.6278809,-10e-4 -1.3292295,-4.29e-4 -1.5585525,0.0013 -0.332275,0.0025 -0.4173311,0.0021 -0.4188228,-0.0017 z"
     id="path888" />
  <path
     style="fill:#eb6b20;fill-opacity:1;stroke:#eb6b20;stroke-width:0.00390625"
     d="m 10.484987,5.9358499 c -4.3e-5,-0.00275 0.005,-0.015052 0.01115,-0.027344 0.01204,-0.023959 0.03174,-0.076303 0.03174,-0.084336 0,-0.00996 -0.01084,-0.019179 -0.02532,-0.021532 -0.01389,-0.00226 -0.01147,-0.00342 0.03527,-0.016952 0.0276,-0.00799 0.05087,-0.013838 0.05171,-0.012996 8.43e-4,8.425e-4 -0.01488,0.027042 -0.03495,0.058222 -0.02006,0.03118 -0.04392,0.068669 -0.053,0.083311 -0.0091,0.014641 -0.01656,0.024373 -0.0166,0.021627 z"
     id="path890" />
  <path
     style="fill:#eb6b20;fill-opacity:1;stroke:#eb6b20;stroke-width:0.00390625"
     d=""
     id="path892" />
  <path
     style="fill:#eb6b20;fill-opacity:1;stroke:#eb6b20;stroke-width:0.00390625"
     d="m 12.113815,5.6124626 c 0,-0.00426 0.111713,-0.055651 0.150479,-0.069227 0.166632,-0.058354 0.338207,-0.053914 0.506429,0.013105 0.04505,0.017948 0.110405,0.050132 0.107566,0.052971 -0.0011,0.00108 -0.01225,-0.00321 -0.02482,-0.00954 -0.134546,-0.067725 -0.277804,-0.098539 -0.406347,-0.087402 -0.100344,0.00869 -0.199629,0.037206 -0.293199,0.084199 -0.03671,0.01844 -0.04011,0.019784 -0.04011,0.015893 z"
     id="path894" />
</svg>
